General:
=============


Complete name                    : Tekken 2010 DVDRIP-trother.mkv
Format                           : Matroska
File size                        : 875 MiB
Duration                         : 1h 27mn
Overall bit rate                 : 1 397 Kbps
Writing application              : Lavf52.91.0
Writing library                  : Lavf52.91.0


Video:
=============


ID                               : 1
Format                           : MPEG-4 Visual
Format profile                   : Simple@L1
Format settings, BVOP            : No
Format settings, QPel            : No
Format settings, GMC             : No warppoints
Format settings, Matrix          : Default (H.263)
Codec ID                         : V_MPEG4/ISO/ASP
Codec ID/Info                    : Advanced Simple Profile
Duration                         : 1h 27mn
Bit rate                         : 1 177 Kbps
Width                            : 720 pixels
Height                           : 576 pixels
Display aspect ratio             : 5:4
Frame rate                       : 25.000 fps
Standard                         : PAL
Color space                      : YUV
Chroma subsampling               : 4:2:0
Bit depth                        : 8 bits
Scan type                        : Progressive
Compression mode                 : Lossy
Bits/(Pixel*Frame)               : 0.114
Stream size                      : 737 MiB (84%)
Writing library                  : Lavc52.101.0
Language                         : English


Audio:
=============


ID                               : 2
Format                           : MPEG Audio
Format version                   : Version 1
Format profile                   : Layer 3
Mode                             : Joint stereo
Mode extension                   : MS Stereo
Codec ID                         : A_MPEG/L3
Codec ID/Hint                    : MP3
Duration                         : 1h 27mn
Bit rate mode                    : Constant
Bit rate                         : 192 Kbps
Channel(s)                       : 2 channels
Sampling rate                    : 44.1 KHz
Compression mode                 : Lossy
Stream size                      : 120 MiB (14%)
Writing library                  : LAME3.98.4
Language                         : English


Subs:                            : NONE


Source:                          : Tekken.2010.MANDARiN.SE.Fi.NO.PAL.DVDR-TV2LAX9


----------------------------------------------------
IMDB Link: http://www.imdb.com/title/tt0411951/
----------------------------------------------------


Plot:
=============

Jin Kazama witnesses the death of his mother Jun by Tekken in the slums known as Anvil. After finding a Tekken ID he decides to seek out vengeance for his mother's death. 


Cast: 
=============

Kelly Overton, Cary-Hiroyuki Tagawa, Luke Goss, Gary Daniels, Mircea Monroe



ENJOY AND PLEASE SEED! 
